<svg width="20" height="20" viewBox="0 0 20 20" fill="none" xmlns="http://www.w3.org/2000/svg">
<path d="M9 19.5V15.0038L5.49998 18.4538L4.44616 17.4L9 12.8461V10.5H6.65382L2.09998 15.0538L1.04616 14L4.49618 10.5H0V9H4.49618L1.04616 5.49998L2.09998 4.44616L6.65382 9H9V6.65382L4.44616 2.09998L5.49998 1.04616L9 4.49618V0H10.5V4.49618L14 1.04616L15.0538 2.09998L10.5 6.65382V9H12.8461L17.4 4.44616L18.4538 5.49998L15.0038 9H19.5V10.5H15.0038L18.4538 14L17.4 15.0538L12.8461 10.5H10.5V12.8461L15.0538 17.4L14 18.4538L10.5 15.0038V19.5H9Z" fill="#542AE6"/>
</svg>
