<svg width="19" height="10" viewBox="0 0 19 10" fill="none" xmlns="http://www.w3.org/2000/svg">
<path d="M8.30764 9.07686H4.53843C3.2828 9.07686 2.21248 8.63441 1.32749 7.74952C0.442497 6.86464 0 5.79445 0 4.53897C0 3.28349 0.442497 2.21312 1.32749 1.32787C2.21248 0.442625 3.2828 0 4.53843 0H8.30764V1.49996H4.53843C3.69868 1.49996 2.98234 1.79644 2.38939 2.38939C1.79644 2.98234 1.49996 3.69868 1.49996 4.53843C1.49996 5.37817 1.79644 6.09452 2.38939 6.68747C2.98234 7.28042 3.69868 7.57689 4.53843 7.57689H8.30764V9.07686ZM5.74998 5.28841V3.78845H13.2499V5.28841H5.74998ZM10.6923 9.07686V7.57689H14.4615C15.3012 7.57689 16.0176 7.28042 16.6105 6.68747C17.2035 6.09452 17.5 5.37817 17.5 4.53843C17.5 3.69868 17.2035 2.98234 16.6105 2.38939C16.0176 1.79644 15.3012 1.49996 14.4615 1.49996H10.6923V0H14.4615C15.7171 0 16.7874 0.442444 17.6724 1.32733C18.5574 2.21222 18.9999 3.2824 18.9999 4.53788C18.9999 5.79337 18.5574 6.86373 17.6724 7.74898C16.7874 8.63423 15.7171 9.07686 14.4615 9.07686H10.6923Z" fill="#542AE6"/>
</svg>
