<svg width="22" height="22" viewBox="0 0 22 22" fill="none" xmlns="http://www.w3.org/2000/svg">
<path d="M10.75 13.75C11.5833 13.75 12.2916 13.4583 12.875 12.875C13.4583 12.2916 13.75 11.5833 13.75 10.75C13.75 9.91665 13.4583 9.20831 12.875 8.62498C12.2916 8.04165 11.5833 7.74998 10.75 7.74998C9.91665 7.74998 9.20831 8.04165 8.62498 8.62498C8.04165 9.20831 7.74998 9.91665 7.74998 10.75C7.74998 11.5833 8.04165 12.2916 8.62498 12.875C9.20831 13.4583 9.91665 13.75 10.75 13.75ZM10.75 15.2499C9.50127 15.2499 8.4391 14.8121 7.56347 13.9365C6.68784 13.0609 6.25002 11.9987 6.25002 10.75C6.25002 9.50127 6.68784 8.4391 7.56347 7.56347C8.4391 6.68784 9.50127 6.25002 10.75 6.25002C11.9987 6.25002 13.0609 6.68784 13.9365 7.56347C14.8121 8.4391 15.2499 9.50127 15.2499 10.75C15.2499 11.9987 14.8121 13.0609 13.9365 13.9365C13.0609 14.8121 11.9987 15.2499 10.75 15.2499ZM3.74998 11.5H0V10H3.74998V11.5ZM21.5 11.5H17.75V10H21.5V11.5ZM10 3.74998V0H11.5V3.74998H10ZM10 21.5V17.75H11.5V21.5H10ZM5.32307 6.32689L2.98078 4.06537L4.04037 2.95578L6.29612 5.27307L5.32307 6.32689ZM17.4596 18.5442L15.1885 16.2115L16.1769 15.1731L18.5192 17.4346L17.4596 18.5442ZM15.1731 5.32307L17.4346 2.98078L18.5442 4.04037L16.2269 6.29612L15.1731 5.32307ZM2.95578 17.4596L5.28846 15.1885L6.30766 16.1769L4.05575 18.5288L2.95578 17.4596Z" fill="#542AE6"/>
</svg>
