<svg width="13" height="19" viewBox="0 0 13 19" fill="none" xmlns="http://www.w3.org/2000/svg">
<path d="M5.11536 1.49996H7.88457C7.81534 1.49996 7.64644 1.49996 7.37785 1.49996C7.10926 1.49996 6.81663 1.49996 6.49996 1.49996C6.1833 1.49996 5.89067 1.49996 5.62208 1.49996C5.35349 1.49996 5.18458 1.49996 5.11536 1.49996ZM5.11536 17.5C5.18458 17.5 5.35349 17.5 5.62208 17.5C5.89067 17.5 6.1833 17.5 6.49996 17.5C6.81663 17.5 7.10926 17.5 7.37785 17.5C7.64644 17.5 7.81534 17.5 7.88457 17.5H5.11536ZM3.98077 18.9999L2.74616 14.7576C1.92693 14.1948 1.26443 13.4512 0.758656 12.5269C0.252885 11.6025 0 10.5936 0 9.49996C0 8.40637 0.252885 7.3974 0.758656 6.47304C1.26443 5.54869 1.92693 4.8051 2.74616 4.24229L3.98077 0H9.01916L10.2538 4.24229C11.073 4.8051 11.7355 5.54869 12.2413 6.47304C12.747 7.3974 12.9999 8.40637 12.9999 9.49996C12.9999 10.5936 12.747 11.6025 12.2413 12.5269C11.7355 13.4512 11.073 14.1948 10.2538 14.7576L9.01916 18.9999H3.98077ZM6.49996 14.5C7.8833 14.5 9.06246 14.0125 10.0375 13.0375C11.0125 12.0625 11.5 10.8833 11.5 9.49996C11.5 8.11663 11.0125 6.93746 10.0375 5.96246C9.06246 4.98746 7.8833 4.49996 6.49996 4.49996C5.11663 4.49996 3.93746 4.98746 2.96246 5.96246C1.98746 6.93746 1.49996 8.11663 1.49996 9.49996C1.49996 10.8833 1.98746 12.0625 2.96246 13.0375C3.93746 14.0125 5.11663 14.5 6.49996 14.5ZM4.58073 3.28846C4.92048 3.19231 5.24612 3.11763 5.55766 3.06442C5.86919 3.01122 6.1833 2.98462 6.49996 2.98462C6.81663 2.98462 7.13073 3.01122 7.44227 3.06442C7.75381 3.11763 8.07945 3.19231 8.4192 3.28846L7.88457 1.49996H5.11536L4.58073 3.28846ZM5.11536 17.5H7.88457L8.4192 15.7115C8.07945 15.8076 7.75381 15.8781 7.44227 15.923C7.13073 15.9679 6.81663 15.9903 6.49996 15.9903C6.1833 15.9903 5.86919 15.9679 5.55766 15.923C5.24612 15.8781 4.92048 15.8076 4.58073 15.7115L5.11536 17.5Z" fill="#542AE6"/>
</svg>
